{"title":"Red.State.LIMITED.720p.BRRip.x264.Feel-Free","uid":6737867,"size":2189853431,"categoryP":"video","categoryS":"hd___movies","magnet":"?xt=urn:btih:0a476d5c27eb0d158633725a4ac618476a799453&amp;dn=Red.State.LIMITED.720p.BRRip.x264.Feel-Free&amp;tr=udp%3A%2F%2Ftracker.openbittorrent.com%3A80&amp;tr=udp%3A%2F%2Fopen.demonii.com%3A1337&amp;tr=udp%3A%2F%2Ftracker.coppersurfer.tk%3A6969&amp;tr=udp%3A%2F%2Fexodus.desync.com%3A6969","seeders":1,"leechers":0,"uploader":"hiest","files":-1,"time":1318403025,"description":"######## ######## ######## ##          ######## ########  ######## ######## \n##       ##       ##       ##          ##       ##     ## ##       ##       \n##       ##       ##       ##          ##       ##     ## ##       ##       \n######   ######   ######   ##          ######   ########  ######   ######   \n##       ##       ##       ##          ##       ##   ##   ##       ##       \n##       ##       ##       ##          ##       ##    ##  ##       ##       \n##       ######## ######## ########    ##       ##     ## ######## ######## \n\n\n\n Genre:Horror | Thriller \n Language:English\n &lt;a href=&quot; http://www.imdb.com/title/tt0873886&quot; rel=&quot;nofollow&quot; target=&quot;_NEW&quot;&gt; http://www.imdb.com/title/tt0873886&lt;/a&gt;\n Source:1080p BluRay x264-REFiNED Thanks!\n\n Format : MPEG-4\n Format profile : Base Media\n Codec ID : isom\n File size : 2.03 GiB\n Duration : 1h 28mn\n Overall bit rate : 3 289 Kbps\n\n Video\n ID : 1\n Format : AVC\n Format/Info : Advanced Video Codec\n Format profile : &lt;a class=&quot;__cf_email__&quot; href=&quot;/cdn-cgi/l/email-protection&quot; data-cfemail=&quot;460e2f212e060a726877&quot;&gt;[email&amp;#160;protected]&lt;/a&gt;&lt;script cf-hash='f9e31' type=&quot;text/javascript&quot;&gt;\n/* &lt;![CDATA[ */!function(){try{var t=&quot;currentScript&quot;in document?document.currentScript:function(){for(var t=document.getElementsByTagName(&quot;script&quot;),e=t.length;e--;)if(t[e].getAttribute(&quot;cf-hash&quot;))return t[e]}();if(t&amp;&amp;t.previousSibling){var e,r,n,i,c=t.previousSibling,a=c.getAttribute(&quot;data-cfemail&quot;);if(a){for(e=&quot;&quot;,r=parseInt(a.substr(0,2),16),n=2;a.length-n;n+=2)i=parseInt(a.substr(n,2),16)^r,e+=String.fromCharCode(i);e=document.createTextNode(e),c.parentNode.replaceChild(e,c)}}}catch(u){}}();/* ]]&gt; */&lt;/script&gt;\n Format settings, CABAC : Yes\n Format settings, ReFrames : 3 frames\n Format settings, GOP : M=1, N=24\n Codec ID : avc1\n Codec ID/Info : Advanced Video Coding\n Duration : 1h 28mn\n Bit rate mode : Variable\n Bit rate : 3 000 Kbps\n Maximum bit rate : 14.7 Mbps\n Width : 1 280 pixels\n Height : 688 pixels\n Display aspect ratio : 1.860\n Frame rate mode : Constant\n Frame rate : 23.976 fps\n Color space : YUV\n Chroma subsampling : 4:2:0\n Bit depth : 8 bits\n Scan type : Progressive\n Bits/(Pixel*Frame) : 0.142\n Stream size : 1.78 GiB (87%)\n Writing library : x264\n\n Audio\n ID : 2\n Format : AAC\n Format/Info : Advanced Audio Codec\n Format version : Version 4\n Format profile : LC\n Format settings, SBR : No\n Codec ID : 40\n Duration : 1h 28mn\n Bit rate mode : Variable\n Bit rate : 414 Kbps\n Maximum bit rate : 535 Kbps\n Channel(s) : 6 channels\n Channel positions : Front: L C R, Side: L R, LFE\n Sampling rate : 48.0 KHz\n Stream size : 262 MiB (13%)\n\n\n Plot:\n Set in Middle America, a group of teens receive an online invitation for sex, \n though they soon encounter fundamentalists with a much more sinister agenda\n\n \n Greets:\n\n INK,CRYS,IMAGINE,LKRG,FXG,3Li,FLAWL3SS,TA,iLLUSiON,ViSiON,DTRG \n SAFCuk009,LU,TheFalcon007,MYSTiC,PrisM,Noir,WBZ,LAP,Rx,Kingdom,SAFCuk009+Fabreezy,HDLiTE,TWiZTED,ETRG.ELEKTRI4KA,MAGNAT,CM8\n And to all the other p2p grps past and present\n\n\n\n\n \n ==================================\n &lt;a href=&quot; http://thepiratebay.se/user/hiest&quot; rel=&quot;nofollow&quot; target=&quot;_NEW&quot;&gt; http://thepiratebay.se/user/hiest&lt;/a&gt;\n ==================================\n\n\n\n\n\n Screen Shots:\n\n &lt;a href=&quot; http://shareimage.org/images/fpok4tr1ue2mvbdnb9tl.png&quot; rel=&quot;nofollow&quot; target=&quot;_NEW&quot;&gt; http://shareimage.org/images/fpok4tr1ue2mvbdnb9tl.png&lt;/a&gt;\n\n &lt;a href=&quot; http://shareimage.org/images/leiob272pejwpuaj4hd.png&quot; rel=&quot;nofollow&quot; target=&quot;_NEW&quot;&gt; http://shareimage.org/images/leiob272pejwpuaj4hd.png&lt;/a&gt;\n\n &lt;a href=&quot; http://shareimage.org/images/dbiwbqbtl5ffxb9xmgq.png&quot; rel=&quot;nofollow&quot; target=&quot;_NEW&quot;&gt; http://shareimage.org/images/dbiwbqbtl5ffxb9xmgq.png&lt;/a&gt;\n\n &lt;a href=&quot; http://shareimage.org/images/ybp30ma2g1vsfiwfg8go.png&quot; rel=&quot;nofollow&quot; target=&quot;_NEW&quot;&gt; http://shareimage.org/images/ybp30ma2g1vsfiwfg8go.png&lt;/a&gt;\n\n &lt;a href=&quot; http://shareimage.org/images/up7cm8wst498git8fvb0.png&quot; rel=&quot;nofollow&quot; target=&quot;_NEW&quot;&gt; http://shareimage.org/images/up7cm8wst498git8fvb0.png&lt;/a&gt;\n\n\n\n######## ######## ######## ##          ######## ########  ######## ######## \n##       ##       ##       ##          ##       ##     ## ##       ##       \n##       ##       ##       ##          ##       ##     ## ##       ##       \n######   ######   ######   ##          ######   ########  ######   ######   \n##       ##       ##       ##          ##       ##   ##   ##       ##       \n##       ##       ##       ##          ##       ##    ##  ##       ##       \n##       ######## ######## ########    ##       ##     ## ######## ######## ","torrent":{"xt":"urn:btih:0a476d5c27eb0d158633725a4ac618476a799453","amp;dn":"Red.State.LIMITED.720p.BRRip.x264.Feel-Free","amp;tr":["udp%3A%2F%2Ftracker.openbittorrent.com%3A80","udp%3A%2F%2Fopen.demonii.com%3A1337","udp%3A%2F%2Ftracker.coppersurfer.tk%3A6969","udp%3A%2F%2Fexodus.desync.com%3A6969"],"infoHash":"0a476d5c27eb0d158633725a4ac618476a799453","infoHashBuffer":{"type":"Buffer","data":[10,71,109,92,39,235,13,21,134,51,114,90,74,198,24,71,106,121,148,83]},"announce":[],"urlList":[]}}